<?xml version="1.0" standalone="no"?>
<!DOCTYPE svg PUBLIC "-//W3C//DTD SVG 20010904//EN"
 "http://www.w3.org/TR/2001/REC-SVG-20010904/DTD/svg10.dtd">

<svg version="1.0" xmlns="http://www.w3.org/2000/svg"
 width="144.000000pt" height="142.000000pt" viewBox="0 0 144.000000 142.000000"
 preserveAspectRatio="xMidYMid meet">

    <g transform="translate(0.000000,142.000000) scale(0.100000,-0.100000)"
    fill="#00000" stroke="none">
    
    <path d="M360 1269 c-71 -14 -151 -59 -182 -104 -50 -71 -59 -127 -65 -392 -6
    -290 5 -412 45 -493 31 -63 91 -114 155 -131 104 -28 431 -38 631 -19 132 13
    192 36 245 96 56 64 72 124 78 296 6 155 1 178 -38 178 -29 0 -36 -27 -38
    -150 -1 -118 -15 -215 -32 -225 -5 -4 -45 27 -90 67 -44 40 -90 78 -102 85
    -41 23 -113 16 -175 -18 -85 -45 -94 -41 -252 115 -74 74 -145 139 -157 145
    -44 22 -97 13 -148 -25 l-47 -37 5 184 c5 202 14 244 62 294 42 45 108 62 274
    71 148 7 169 14 156 54 -6 19 -14 20 -143 19 -75 -1 -157 -5 -182 -10z"/>

    <path d="M823 1266 c-62 -28 -68 -50 -68 -242 0 -159 2 -175 21 -201 38 -52
    64 -58 239 -58 244 0 253 10 254 258 1 157 -7 195 -49 232 -20 18 -38 20 -194
    22 -130 2 -179 -1 -203 -11z m339 -130 c4 -6 8 -20 8 -31 0 -26 -188 -215
    -214 -215 -27 0 -106 79 -106 105 0 45 53 61 85 25 18 -20 19 -19 101 60 82
    80 103 90 126 56z"/>
    </g>
</svg>
